<svg xmlns="http://www.w3.org/2000/svg" viewBox="0 0 150.72 151.39"><defs><style>.cls-1{fill:#f3c414;}.cls-2{fill:#e5e5e5;}.cls-3{fill:#ff6795;}</style></defs><title>Asset 2random</title><g id="Layer_2" data-name="Layer 2"><g id="Layer_1-2" data-name="Layer 1"><path class="cls-1" d="M6.36,4.57h4.36V6.45H6.36v4.94h-2V6.45H0V4.57H4.36V0h2Z"/><path class="cls-2" d="M6.36,39.57h4.36v1.88H6.36v4.94h-2V41.45H0V39.57H4.36V35h2Z"/><path class="cls-2" d="M6.36,74.57h4.36v1.88H6.36v4.94h-2V76.45H0V74.57H4.36V70h2Z"/><path class="cls-2" d="M41.36,4.57h4.36V6.45H41.36v4.94h-2V6.45H35V4.57h4.36V0h2Z"/><path class="cls-2" d="M41.36,39.57h4.36v1.88H41.36v4.94h-2V41.45H35V39.57h4.36V35h2Z"/><path class="cls-2" d="M41.36,74.57h4.36v1.88H41.36v4.94h-2V76.45H35V74.57h4.36V70h2Z"/><path class="cls-2" d="M41.36,109.57h4.36v1.88H41.36v4.94h-2v-4.94H35v-1.88h4.36V105h2Z"/><path class="cls-2" d="M76.36,4.57h4.36V6.45H76.36v4.94h-2V6.45H70V4.57h4.36V0h2Z"/><path class="cls-2" d="M76.36,39.57h4.36v1.88H76.36v4.94h-2V41.45H70V39.57h4.36V35h2Z"/><path class="cls-3" d="M76.36,74.57h4.36v1.88H76.36v4.94h-2V76.45H70V74.57h4.36V70h2Z"/><path class="cls-2" d="M76.36,109.57h4.36v1.88H76.36v4.94h-2v-4.94H70v-1.88h4.36V105h2Z"/><path class="cls-2" d="M76.36,144.57h4.36v1.88H76.36v4.94h-2v-4.94H70v-1.88h4.36V140h2Z"/><path class="cls-2" d="M111.36,4.57h4.36V6.45h-4.36v4.94h-2V6.45H105V4.57h4.36V0h2Z"/><path class="cls-2" d="M111.36,39.57h4.36v1.88h-4.36v4.94h-2V41.45H105V39.57h4.36V35h2Z"/><path class="cls-2" d="M111.36,74.57h4.36v1.88h-4.36v4.94h-2V76.45H105V74.57h4.36V70h2Z"/><path class="cls-2" d="M111.36,109.57h4.36v1.88h-4.36v4.94h-2v-4.94H105v-1.88h4.36V105h2Z"/><path class="cls-2" d="M111.36,144.57h4.36v1.88h-4.36v4.94h-2v-4.94H105v-1.88h4.36V140h2Z"/><path class="cls-2" d="M146.36,4.57h4.36V6.45h-4.36v4.94h-2V6.45H140V4.57h4.36V0h2Z"/><path class="cls-2" d="M146.36,39.57h4.36v1.88h-4.36v4.94h-2V41.45H140V39.57h4.36V35h2Z"/><path class="cls-2" d="M146.36,74.57h4.36v1.88h-4.36v4.94h-2V76.45H140V74.57h4.36V70h2Z"/><path class="cls-2" d="M146.36,109.57h4.36v1.88h-4.36v4.94h-2v-4.94H140v-1.88h4.36V105h2Z"/><path class="cls-2" d="M146.36,144.57h4.36v1.88h-4.36v4.94h-2v-4.94H140v-1.88h4.36V140h2Z"/></g></g></svg>