<svg xmlns="http://www.w3.org/2000/svg" viewBox="0 0 305 305"><defs><style>.cls-1{fill:#1b1b1b;}.cls-2{fill:#76e5ff;}</style></defs><title>Asset 21favicon</title><g id="Layer_2" data-name="Layer 2"><g id="Layer_1-2" data-name="Layer 1"><rect class="cls-1" width="305" height="305" rx="78.1"/><path class="cls-2" d="M150.68,118.34,107.56,235.19a3.5,3.5,0,0,1-3.28,2.29H66.79a3.5,3.5,0,0,1-3.24-4.81l58.87-145a32.36,32.36,0,0,1,30-20.19h0a32.38,32.38,0,0,1,30,20.16l59.06,145a3.5,3.5,0,0,1-3.23,4.82H199.83a3.5,3.5,0,0,1-3.28-2.29L153.43,118.34A1.47,1.47,0,0,0,150.68,118.34Z"/><circle class="cls-2" cx="152.5" cy="194.5" r="20.42"/></g></g></svg>