<svg xmlns="http://www.w3.org/2000/svg" viewBox="0 0 436.58 118.4"><defs><style>.cls-1{fill:#ff6795;}</style></defs><title>Asset 16</title><g id="Layer_2" data-name="Layer 2"><g id="Layer_1-2" data-name="Layer 1"><path class="cls-1" d="M56.74,39.62l-28,75.87A2.27,2.27,0,0,1,26.61,117H2.27a2.27,2.27,0,0,1-2.1-3.13L38.39,19.73A21,21,0,0,1,57.86,6.62h0A21,21,0,0,1,77.33,19.71l38.35,94.14a2.27,2.27,0,0,1-2.1,3.13H88.66a2.27,2.27,0,0,1-2.13-1.49l-28-75.87A1,1,0,0,0,56.74,39.62Z"/><path class="cls-1" d="M198.53,39.57q8.91,9.47,8.92,28.54v46.6a2.27,2.27,0,0,1-2.27,2.27h-23a2.27,2.27,0,0,1-2.27-2.27V73q0-17.49-12.9-17.5a14.2,14.2,0,0,0-11.39,5q-4.28,5-4.28,15.13v39a2.27,2.27,0,0,1-2.27,2.27H126a2.27,2.27,0,0,1-2.27-2.27V33.8A2.27,2.27,0,0,1,126,31.53h21.71A2.27,2.27,0,0,1,150,33.8v7a31.08,31.08,0,0,1,11-8A34.66,34.66,0,0,1,175,30.11Q189.61,30.11,198.53,39.57Z"/><path class="cls-1" d="M242.69,112.72a40.57,40.57,0,0,1-16-15.76,45.49,45.49,0,0,1-5.73-22.86,45,45,0,0,1,5.73-22.78,40.14,40.14,0,0,1,16-15.61A48.1,48.1,0,0,1,266,30.11q13.33,0,23.06,6.23a33.64,33.64,0,0,1,13,15.32,2.3,2.3,0,0,1-1,2.92l-17.53,9.71a2.26,2.26,0,0,1-3.07-.89q-5.28-9.48-14.63-9.48a15.8,15.8,0,0,0-12.25,5.36q-4.86,5.36-4.86,14.82,0,9.62,4.86,15.05a15.71,15.71,0,0,0,12.25,5.44q9.35,0,14.63-9.48a2.27,2.27,0,0,1,3.07-.9l17.53,9.72a2.3,2.3,0,0,1,1,2.92,33.59,33.59,0,0,1-13,15.32q-9.72,6.22-23.06,6.23A47.6,47.6,0,0,1,242.69,112.72Z"/><path class="cls-1" d="M329.12,112.72A40.84,40.84,0,0,1,313.24,97a45.49,45.49,0,0,1-5.73-22.86,45.19,45.19,0,0,1,5.73-22.71,40.46,40.46,0,0,1,15.81-15.68,49.54,49.54,0,0,1,45.76,0,39.94,39.94,0,0,1,15.8,15.61,45.48,45.48,0,0,1,5.66,22.78A46,46,0,0,1,390.61,97a40.38,40.38,0,0,1-15.8,15.76,48.78,48.78,0,0,1-45.69,0Zm34.66-23.57q4.65-5.43,4.64-15.05,0-9.46-4.64-14.82a15.87,15.87,0,0,0-23.78,0q-4.65,5.36-4.64,14.82,0,9.62,4.64,15.05a15.71,15.71,0,0,0,23.78,0Z"/><path class="cls-1" d="M411.3,0h23a2.27,2.27,0,0,1,2.27,2.27V114.71a2.27,2.27,0,0,1-2.27,2.27h-23a2.27,2.27,0,0,1-2.27-2.27V2.27A2.27,2.27,0,0,1,411.3,0Z"/><circle class="cls-1" cx="57.92" cy="89.07" r="13.26"/></g></g></svg>