<svg xmlns="http://www.w3.org/2000/svg" viewBox="0 0 459.11 119.52"><defs><style>.cls-1{fill:#1b1b1b;}</style></defs><title>Asset 23random</title><g id="Layer_2" data-name="Layer 2"><g id="Layer_1-2" data-name="Layer 1"><path class="cls-1" d="M46.2,34q-9.45,39.57-17.41,79.41a2.3,2.3,0,0,1-1.88,1.82c-9.69,1.61-14.53,2.47-24.19,4.3a2.27,2.27,0,0,1-2.67-2.67Q10.51,66.66,23.6,17.2C25.85,8.83,33.49,2.41,42.84,1.1h0C52.18-.2,61.26,3.88,65.72,11.31q26.16,44,49.93,89.39a2.28,2.28,0,0,1-1.83,3.3c-10,.91-15,1.41-25,2.53a2.27,2.27,0,0,1-2.3-1.23Q68,69.11,48.1,33.69A1.05,1.05,0,0,0,46.2,34Z"/><path class="cls-1" d="M197.83,22c7.47,7.25,9.92,18.24,9.83,28.41l.43,46.6a2.27,2.27,0,0,1-2.26,2.29c-9.26.11-13.88.2-23.14.49a2.29,2.29,0,0,1-2.36-2.19L179,55.92c-.38-11.65-5.13-17.36-14.23-17q-7.53.34-11.77,5.63c-2.83,3.52-4,8.65-3.64,15.37q1.14,19.49,2.26,39a2.29,2.29,0,0,1-2.15,2.4c-9.25.55-13.87.87-23.1,1.61a2.29,2.29,0,0,1-2.47-2.08q-3.28-40.32-6.58-80.64a2.35,2.35,0,0,1,2.25-2.46c9.36-.75,14-1.08,23.39-1.65a2.36,2.36,0,0,1,2.58,2.12c.17,2.81.25,4.22.42,7a32.76,32.76,0,0,1,11.4-8.59,39,39,0,0,1,14.9-3.41C182.75,12.86,191.43,15.82,197.83,22Z"/><path class="cls-1" d="M243.64,95.25a42.51,42.51,0,0,1-16.06-16,45.21,45.21,0,0,1-5.8-22.89,42.62,42.62,0,0,1,6.13-22.75,40.46,40.46,0,0,1,17.35-15.37,52.93,52.93,0,0,1,25.34-4.81c9.61.4,17.82,2.92,24.52,7.49A33.5,33.5,0,0,1,308,37.14,2.24,2.24,0,0,1,306.72,40C299,43.33,295.21,45,287.63,48.5a2.44,2.44,0,0,1-3.17-1.08c-3.37-6.51-8.39-9.93-15-10.2a17,17,0,0,0-13.15,4.89c-3.53,3.47-5.35,8.37-5.51,14.67s1.38,11.47,4.6,15.19a16.57,16.57,0,0,0,12.39,5.89c6.38.26,11.52-2.64,15.49-8.75a2.38,2.38,0,0,1,3.22-.73c7,4.29,10.5,6.46,17.4,10.85a2.26,2.26,0,0,1,.79,3,34.68,34.68,0,0,1-14.21,14.41c-6.79,3.75-14.59,5.4-23.52,5A50.18,50.18,0,0,1,243.64,95.25Z"/><path class="cls-1" d="M330.76,100.34A42.82,42.82,0,0,1,316.07,83.2,45.09,45.09,0,0,1,312,59.94a42.67,42.67,0,0,1,7.82-22.15A40.48,40.48,0,0,1,338,23.67a51,51,0,0,1,25.11-3A51.57,51.57,0,0,1,387,29.34a40.18,40.18,0,0,1,14.56,17.84A42.79,42.79,0,0,1,404,70.6a45.44,45.44,0,0,1-9.23,21.72,42.24,42.24,0,0,1-18.17,13.33,51.74,51.74,0,0,1-45.88-5.31Zm37.78-19.52Q374,76,375.23,66.5c.82-6.26-.15-11.37-3-15.32a17.27,17.27,0,0,0-25-2.89c-3.63,3.21-5.74,8-6.37,14.24s.45,11.52,3.24,15.47a16.68,16.68,0,0,0,24.37,2.82Z"/><path class="cls-1" d="M431.85,0C441.93,1.73,447,2.63,457,4.53a2.4,2.4,0,0,1,2.05,2.7L438,117.68a2.3,2.3,0,0,1-2.68,1.8c-9.14-1.73-13.71-2.54-22.88-4.08a2.28,2.28,0,0,1-1.88-2.62Q419.78,57.33,429,1.86A2.39,2.39,0,0,1,431.85,0Z"/><path class="cls-1" d="M67.85,81a13.69,13.69,0,1,1-15.4-11.33A13.53,13.53,0,0,1,67.85,81Z"/></g></g></svg>